<svg width="15" height="17" viewBox="0 0 15 17" fill="none" xmlns="http://www.w3.org/2000/svg">
<path d="M7.5 16.4166C8.4625 16.4166 9.25 15.7041 9.25 14.8333H5.75C5.75 15.7041 6.5375 16.4166 7.5 16.4166ZM12.75 11.6666V7.70829C12.75 5.27788 11.3238 3.24329 8.8125 2.70496V2.16663C8.8125 1.50954 8.22625 0.979126 7.5 0.979126C6.77375 0.979126 6.1875 1.50954 6.1875 2.16663V2.70496C3.685 3.24329 2.25 5.26996 2.25 7.70829V11.6666L0.5 13.25V14.0416H14.5V13.25L12.75 11.6666ZM11 12.4583H4V7.70829C4 5.74496 5.32125 4.14579 7.5 4.14579C9.67875 4.14579 11 5.74496 11 7.70829V12.4583Z" fill="url(#paint0_linear_22:418)"/>
<defs>
<linearGradient id="paint0_linear_22:418" x1="7.5" y1="0.979126" x2="7.5" y2="16.4166" gradientUnits="userSpaceOnUse">
<stop stop-color="#4ED5FF"/>
<stop offset="1" stop-color="#FF86C0"/>
</linearGradient>
</defs>
</svg>
